<svg xmlns="http://www.w3.org/2000/svg" xmlns:xlink="http://www.w3.org/1999/xlink" width="500" zoomAndPan="magnify" viewBox="0 0 375 187.499995" height="250" preserveAspectRatio="xMidYMid meet" version="1.0"><defs><g/><clipPath id="d6b205fdad"><path d="M 189.660156 10.632812 L 227.871094 10.632812 L 227.871094 89.871094 L 189.660156 89.871094 Z M 189.660156 10.632812 " clip-rule="nonzero"/></clipPath><clipPath id="3ea1e98971"><path d="M 125.511719 35.167969 L 178 35.167969 L 178 89.871094 L 125.511719 89.871094 Z M 125.511719 35.167969 " clip-rule="nonzero"/></clipPath><clipPath id="b60cbc1470"><path d="M 202.75 10.632812 L 240.960938 10.632812 L 240.960938 89.871094 L 202.75 89.871094 Z M 202.75 10.632812 " clip-rule="nonzero"/></clipPath><clipPath id="ee0ce561ce"><path d="M 138.601562 35.167969 L 191 35.167969 L 191 89.871094 L 138.601562 89.871094 Z M 138.601562 35.167969 " clip-rule="nonzero"/></clipPath></defs><g clip-path="url(#d6b205fdad)"><path fill="#15352c" d="M 206.652344 11.214844 C 206.71875 12.414062 206.984375 17.523438 206.941406 23.125 C 206.871094 31.714844 206.140625 37.316406 204.769531 39.777344 C 204.257812 40.699219 203.503906 41.980469 202.625 43.464844 C 200.210938 47.570312 196.902344 53.1875 194.289062 58.574219 C 191.210938 64.917969 189.921875 69.308594 190.453125 71.621094 C 191.148438 74.632812 193.230469 78.792969 195.886719 82.484375 C 198.546875 86.1875 201.28125 88.695312 203.015625 89.023438 C 203.964844 89.207031 207.34375 89.785156 210.90625 89.59375 C 214.253906 89.414062 216.570312 88.585938 217.609375 87.203125 C 218.574219 85.917969 220.546875 81.761719 222.597656 75.675781 C 224.222656 70.847656 226.34375 63.46875 227.210938 55.726562 C 228.089844 47.898438 225.351562 39.714844 219.085938 31.40625 C 218.941406 31.214844 218.792969 31.019531 218.648438 30.828125 C 218.035156 30.03125 217.402344 29.203125 216.882812 28.3125 C 216.199219 27.128906 214.4375 13.574219 214.128906 11.136719 Z M 209.441406 90.136719 C 206.40625 90.136719 203.75 89.679688 202.921875 89.519531 C 201.035156 89.15625 198.253906 86.636719 195.476562 82.78125 C 192.785156 79.035156 190.671875 74.804688 189.964844 71.734375 C 189.394531 69.273438 190.664062 64.894531 193.835938 58.355469 C 196.457031 52.949219 199.773438 47.320312 202.195312 43.210938 C 203.066406 41.730469 203.820312 40.449219 204.332031 39.53125 C 205.640625 37.183594 206.371094 31.507812 206.4375 23.121094 C 206.488281 16.761719 206.140625 11.039062 206.136719 10.980469 C 206.132812 10.914062 206.15625 10.84375 206.203125 10.796875 C 206.25 10.746094 206.316406 10.714844 206.382812 10.714844 L 214.34375 10.632812 C 214.476562 10.628906 214.582031 10.726562 214.597656 10.851562 C 215.417969 17.296875 216.820312 27.199219 217.320312 28.058594 C 217.820312 28.921875 218.445312 29.734375 219.046875 30.523438 C 219.195312 30.714844 219.34375 30.910156 219.488281 31.101562 C 222.390625 34.949219 224.570312 38.847656 225.972656 42.6875 C 227.601562 47.140625 228.183594 51.546875 227.710938 55.78125 C 226.839844 63.570312 224.710938 70.984375 223.074219 75.835938 C 221.007812 81.972656 219 86.1875 218.011719 87.503906 C 216.867188 89.035156 214.484375 89.90625 210.933594 90.097656 C 210.429688 90.125 209.929688 90.136719 209.441406 90.136719 " fill-opacity="1" fill-rule="nonzero"/></g><g clip-path="url(#3ea1e98971)"><path fill="#15352c" d="M 148.550781 35.691406 C 148.597656 36.851562 148.632812 41.269531 146.691406 42.703125 C 146.316406 42.980469 145.527344 43.308594 144.4375 43.761719 C 139.066406 45.988281 126.496094 51.199219 126.042969 65.832031 C 125.773438 74.503906 127.324219 80.257812 130.917969 83.929688 C 134.816406 87.914062 141.441406 89.726562 151.773438 89.628906 C 160.808594 89.714844 167.535156 87.484375 171.777344 83.003906 C 175.960938 78.585938 177.796875 71.914062 177.234375 63.175781 C 176.4375 50.8125 169.160156 48.125 163.308594 45.96875 C 160.429688 44.90625 157.941406 43.988281 156.640625 42.125 C 156.378906 41.902344 155.007812 40.496094 155.445312 35.863281 Z M 150.972656 90.136719 C 146.105469 90.136719 142.144531 89.707031 138.886719 88.832031 C 135.34375 87.875 132.617188 86.386719 130.558594 84.28125 C 126.859375 80.503906 125.265625 74.636719 125.539062 65.816406 C 125.742188 59.394531 128.265625 54 133.042969 49.78125 C 136.980469 46.308594 141.527344 44.425781 144.242188 43.296875 C 145.261719 42.875 146.070312 42.542969 146.394531 42.300781 C 148.371094 40.839844 148.039062 35.503906 148.035156 35.449219 C 148.03125 35.378906 148.054688 35.308594 148.105469 35.257812 C 148.152344 35.207031 148.222656 35.179688 148.292969 35.183594 L 155.730469 35.367188 C 155.800781 35.367188 155.867188 35.398438 155.914062 35.449219 C 155.957031 35.503906 155.980469 35.574219 155.972656 35.644531 C 155.449219 40.527344 156.960938 41.738281 156.976562 41.75 C 157 41.765625 157.015625 41.785156 157.03125 41.808594 C 158.238281 43.5625 160.667969 44.460938 163.484375 45.496094 C 166.445312 46.589844 169.800781 47.828125 172.523438 50.382812 C 175.664062 53.335938 177.371094 57.507812 177.734375 63.144531 C 178.308594 72.027344 176.425781 78.828125 172.144531 83.351562 C 170.011719 85.601562 167.253906 87.3125 163.945312 88.441406 C 160.527344 89.605469 156.429688 90.175781 151.773438 90.132812 C 151.503906 90.132812 151.238281 90.136719 150.972656 90.136719 " fill-opacity="1" fill-rule="nonzero"/></g><g clip-path="url(#b60cbc1470)"><path fill="#d4af36" d="M 219.742188 11.214844 C 219.8125 12.414062 220.078125 17.523438 220.03125 23.125 C 219.960938 31.714844 219.230469 37.316406 217.863281 39.777344 C 217.347656 40.699219 216.59375 41.980469 215.71875 43.464844 C 213.300781 47.570312 209.992188 53.1875 207.378906 58.574219 C 204.300781 64.917969 203.011719 69.308594 203.542969 71.621094 C 204.238281 74.632812 206.320312 78.792969 208.976562 82.484375 C 211.640625 86.1875 214.371094 88.695312 216.105469 89.023438 C 217.054688 89.207031 220.433594 89.785156 224 89.59375 C 227.34375 89.414062 229.664062 88.585938 230.703125 87.203125 C 231.667969 85.917969 233.640625 81.761719 235.6875 75.675781 C 237.316406 70.847656 239.4375 63.46875 240.300781 55.726562 C 241.179688 47.898438 238.445312 39.714844 232.179688 31.40625 C 232.03125 31.214844 231.886719 31.019531 231.738281 30.828125 C 231.125 30.03125 230.492188 29.203125 229.972656 28.3125 C 229.289062 27.128906 227.53125 13.574219 227.21875 11.136719 Z M 222.53125 90.136719 C 219.5 90.136719 216.839844 89.679688 216.011719 89.519531 C 214.128906 89.15625 211.34375 86.636719 208.566406 82.78125 C 205.875 79.035156 203.765625 74.804688 203.054688 71.734375 C 202.488281 69.273438 203.753906 64.894531 206.925781 58.355469 C 209.550781 52.949219 212.863281 47.320312 215.285156 43.210938 C 216.160156 41.730469 216.914062 40.449219 217.421875 39.53125 C 218.734375 37.183594 219.460938 31.507812 219.527344 23.121094 C 219.582031 16.761719 219.230469 11.039062 219.226562 10.980469 C 219.222656 10.914062 219.246094 10.84375 219.292969 10.796875 C 219.339844 10.746094 219.40625 10.714844 219.476562 10.714844 L 227.4375 10.632812 C 227.566406 10.628906 227.671875 10.726562 227.6875 10.851562 C 228.507812 17.296875 229.910156 27.199219 230.410156 28.058594 C 230.910156 28.921875 231.535156 29.734375 232.136719 30.523438 C 232.285156 30.714844 232.433594 30.910156 232.578125 31.101562 C 235.480469 34.949219 237.660156 38.847656 239.066406 42.6875 C 240.691406 47.140625 241.277344 51.546875 240.800781 55.78125 C 239.929688 63.570312 237.800781 70.984375 236.167969 75.835938 C 234.097656 81.972656 232.09375 86.1875 231.105469 87.503906 C 229.957031 89.035156 227.574219 89.90625 224.027344 90.097656 C 223.523438 90.125 223.023438 90.136719 222.53125 90.136719 " fill-opacity="1" fill-rule="nonzero"/></g><g clip-path="url(#ee0ce561ce)"><path fill="#d4af36" d="M 161.640625 35.691406 C 161.6875 36.851562 161.726562 41.269531 159.785156 42.703125 C 159.410156 42.980469 158.621094 43.308594 157.527344 43.761719 C 152.160156 45.988281 139.589844 51.199219 139.132812 65.832031 C 138.863281 74.503906 140.414062 80.257812 144.007812 83.929688 C 147.90625 87.914062 154.535156 89.726562 164.863281 89.628906 C 173.898438 89.714844 180.628906 87.484375 184.867188 83.003906 C 189.050781 78.585938 190.886719 71.914062 190.324219 63.175781 C 189.527344 50.8125 182.25 48.125 176.402344 45.96875 C 173.523438 44.90625 171.03125 43.988281 169.730469 42.125 C 169.472656 41.902344 168.097656 40.496094 168.539062 35.863281 Z M 164.0625 90.136719 C 159.195312 90.136719 155.234375 89.707031 151.976562 88.832031 C 148.433594 87.875 145.710938 86.386719 143.648438 84.28125 C 139.953125 80.503906 138.359375 74.636719 138.632812 65.816406 C 138.832031 59.394531 141.355469 54 146.136719 49.78125 C 150.070312 46.308594 154.617188 44.425781 157.335938 43.296875 C 158.355469 42.875 159.160156 42.542969 159.484375 42.300781 C 161.460938 40.839844 161.128906 35.503906 161.128906 35.449219 C 161.121094 35.378906 161.148438 35.308594 161.195312 35.257812 C 161.246094 35.207031 161.3125 35.179688 161.382812 35.183594 L 168.820312 35.367188 C 168.890625 35.367188 168.957031 35.398438 169.003906 35.449219 C 169.050781 35.503906 169.070312 35.574219 169.066406 35.644531 C 168.539062 40.527344 170.050781 41.738281 170.066406 41.75 C 170.089844 41.765625 170.105469 41.785156 170.125 41.808594 C 171.328125 43.5625 173.761719 44.460938 176.574219 45.496094 C 179.535156 46.589844 182.890625 47.828125 185.613281 50.382812 C 188.757812 53.335938 190.460938 57.507812 190.828125 63.144531 C 191.398438 72.027344 189.515625 78.828125 185.234375 83.351562 C 183.101562 85.601562 180.347656 87.3125 177.039062 88.441406 C 173.617188 89.605469 169.519531 90.175781 164.863281 90.132812 C 164.59375 90.132812 164.328125 90.136719 164.0625 90.136719 " fill-opacity="1" fill-rule="nonzero"/></g><g fill="#000000" fill-opacity="1"><g transform="translate(92.756641, 162.569719)"><g><path d="M 25.0625 -16.09375 C 25.101562 -16.0625 25.125 -15.992188 25.125 -15.890625 C 25.082031 -15.859375 24.925781 -15.738281 24.65625 -15.53125 C 24.257812 -15.332031 23.695312 -15.046875 22.96875 -14.671875 C 22.25 -14.304688 21.789062 -14.070312 21.59375 -13.96875 C 19.539062 -12.820312 18.175781 -12.03125 17.5 -11.59375 C 17 -11.226562 16.644531 -10.828125 16.4375 -10.390625 C 15.46875 -8.273438 14.207031 -6.5625 12.65625 -5.25 C 12.320312 -4.976562 11.988281 -4.742188 11.65625 -4.546875 C 11.550781 -4.441406 11.347656 -4.351562 11.046875 -4.28125 C 10.804688 -4.25 10.59375 -4.304688 10.40625 -4.453125 C 10.226562 -4.609375 10.171875 -4.804688 10.234375 -5.046875 C 10.304688 -5.378906 10.410156 -5.628906 10.546875 -5.796875 C 10.640625 -6.003906 10.820312 -6.273438 11.09375 -6.609375 C 12.707031 -8.523438 14.203125 -9.988281 15.578125 -11 C 16.015625 -11.300781 16.335938 -11.71875 16.546875 -12.25 C 17.316406 -14.207031 18.003906 -16.664062 18.609375 -19.625 C 19.046875 -21.976562 19.25 -24.144531 19.21875 -26.125 C 19.144531 -27.375 18.941406 -28.566406 18.609375 -29.703125 C 18.441406 -30.304688 18.222656 -30.78125 17.953125 -31.125 C 17.421875 -31.820312 16.734375 -32.039062 15.890625 -31.78125 C 15.378906 -31.570312 14.84375 -31.234375 14.28125 -30.765625 C 13.300781 -29.960938 12.441406 -28.90625 11.703125 -27.59375 C 10.859375 -26.207031 10 -24.269531 9.125 -21.78125 C 7.71875 -17.75 6.507812 -13.664062 5.5 -9.53125 C 4.425781 -5.195312 3.347656 -0.441406 2.265625 4.734375 C 2.203125 5.140625 2.019531 5.929688 1.71875 7.109375 C 1.71875 7.140625 1.632812 7.359375 1.46875 7.765625 C 1.363281 7.929688 1.226562 8.015625 1.0625 8.015625 C 0.894531 7.984375 0.757812 7.882812 0.65625 7.71875 C 0.550781 7.476562 0.5 7.222656 0.5 6.953125 C 0.5 5.910156 0.519531 5.140625 0.5625 4.640625 C 0.726562 1.878906 1.160156 -1.378906 1.859375 -5.140625 L 3.6875 -14.671875 C 4.082031 -16.828125 4.71875 -20.054688 5.59375 -24.359375 C 6 -26.378906 6.269531 -27.976562 6.40625 -29.15625 C 6.40625 -29.425781 6.472656 -29.59375 6.609375 -29.65625 C 6.671875 -29.6875 6.753906 -29.644531 6.859375 -29.53125 C 6.960938 -29.414062 7.03125 -29.289062 7.0625 -29.15625 C 7.125 -28.75 7.125 -28.144531 7.0625 -27.34375 C 6.863281 -25.21875 6.257812 -21.535156 5.25 -16.296875 L 3.28125 -5.90625 C 3.175781 -5.332031 3 -4.347656 2.75 -2.953125 C 2.5 -1.554688 2.304688 -0.488281 2.171875 0.25 L 1.71875 3.734375 L 1.71875 4.1875 C 1.882812 3.945312 2 3.609375 2.0625 3.171875 C 3.175781 -1.898438 4.390625 -6.992188 5.703125 -12.109375 C 6.804688 -16.335938 8.082031 -20.367188 9.53125 -24.203125 C 10.207031 -25.992188 11.03125 -27.609375 12 -29.046875 C 12.707031 -30.085938 13.550781 -30.960938 14.53125 -31.671875 C 15 -31.972656 15.503906 -32.226562 16.046875 -32.4375 C 16.847656 -32.664062 17.566406 -32.445312 18.203125 -31.78125 C 18.503906 -31.4375 18.773438 -30.960938 19.015625 -30.359375 C 19.453125 -29.222656 19.722656 -27.945312 19.828125 -26.53125 C 19.960938 -24.113281 19.722656 -21.472656 19.109375 -18.609375 C 18.671875 -16.523438 18.148438 -14.625 17.546875 -12.90625 C 17.546875 -12.875 17.53125 -12.800781 17.5 -12.6875 C 17.46875 -12.570312 17.4375 -12.460938 17.40625 -12.359375 C 17.664062 -12.492188 18.207031 -12.785156 19.03125 -13.234375 C 19.863281 -13.691406 20.5 -14.019531 20.9375 -14.21875 L 24.40625 -15.984375 C 24.675781 -16.117188 24.878906 -16.171875 25.015625 -16.140625 Z M 15.125 -9.484375 L 15.125 -9.6875 C 15.0625 -9.6875 15.015625 -9.671875 14.984375 -9.640625 C 13.804688 -8.660156 12.578125 -7.394531 11.296875 -5.84375 C 11.234375 -5.78125 11.132812 -5.5625 11 -5.1875 C 10.925781 -5.1875 10.941406 -5.140625 11.046875 -5.046875 L 11.140625 -5.046875 C 11.242188 -5.078125 11.394531 -5.160156 11.59375 -5.296875 C 13.007812 -6.367188 14.1875 -7.765625 15.125 -9.484375 Z M 15.125 -9.484375 "/></g></g></g><g fill="#000000" fill-opacity="1"><g transform="translate(116.86859, 162.569719)"><g><path d="M 3.03125 -10.03125 C 2.320312 -10.101562 1.867188 -10.457031 1.671875 -11.09375 C 1.597656 -11.332031 1.5625 -11.738281 1.5625 -12.3125 C 1.59375 -12.613281 1.640625 -12.957031 1.703125 -13.34375 C 1.773438 -13.726562 1.816406 -13.988281 1.828125 -14.125 C 1.847656 -14.257812 1.847656 -14.410156 1.828125 -14.578125 C 1.816406 -14.742188 1.773438 -14.867188 1.703125 -14.953125 C 1.640625 -15.035156 1.539062 -15.128906 1.40625 -15.234375 C 1.070312 -15.429688 0.769531 -15.679688 0.5 -15.984375 C -0.132812 -16.796875 -0.0507812 -17.503906 0.75 -18.109375 C 1.019531 -18.273438 1.28125 -18.296875 1.53125 -18.171875 C 1.789062 -18.054688 1.9375 -17.847656 1.96875 -17.546875 C 2 -17.410156 1.984375 -17.175781 1.921875 -16.84375 C 1.921875 -16.8125 1.835938 -16.59375 1.671875 -16.1875 C 1.566406 -16.050781 1.582031 -15.914062 1.71875 -15.78125 C 1.8125 -15.6875 1.894531 -15.617188 1.96875 -15.578125 C 2.539062 -15.140625 2.8125 -14.503906 2.78125 -13.671875 C 2.78125 -13.503906 2.769531 -13.25 2.75 -12.90625 C 2.726562 -12.570312 2.71875 -12.320312 2.71875 -12.15625 C 2.71875 -11.957031 2.753906 -11.6875 2.828125 -11.34375 C 2.921875 -10.976562 3.171875 -10.796875 3.578125 -10.796875 C 3.847656 -10.828125 4.171875 -10.925781 4.546875 -11.09375 C 5.179688 -11.363281 5.816406 -11.769531 6.453125 -12.3125 C 6.753906 -12.539062 7.410156 -13.066406 8.421875 -13.890625 C 9.429688 -14.710938 10.085938 -15.242188 10.390625 -15.484375 C 10.660156 -15.679688 10.878906 -15.832031 11.046875 -15.9375 C 11.078125 -15.96875 11.109375 -15.972656 11.140625 -15.953125 C 11.179688 -15.941406 11.203125 -15.921875 11.203125 -15.890625 C 11.265625 -15.816406 11.28125 -15.765625 11.25 -15.734375 C 11.144531 -15.566406 11.078125 -15.46875 11.046875 -15.4375 C 10.609375 -15.0625 9.789062 -14.394531 8.59375 -13.4375 C 7.40625 -12.476562 6.691406 -11.914062 6.453125 -11.75 C 5.878906 -11.25 5.140625 -10.78125 4.234375 -10.34375 C 3.898438 -10.132812 3.5 -10.03125 3.03125 -10.03125 Z M 1.015625 -16.4375 L 1.109375 -16.5 L 1.203125 -16.546875 C 1.378906 -16.816406 1.46875 -17.082031 1.46875 -17.34375 C 1.46875 -17.414062 1.414062 -17.503906 1.3125 -17.609375 C 1.238281 -17.671875 1.140625 -17.671875 1.015625 -17.609375 C 0.640625 -17.335938 0.585938 -17 0.859375 -16.59375 Z M 1.015625 -16.4375 "/></g></g></g><g fill="#000000" fill-opacity="1"><g transform="translate(127.108584, 162.569719)"><g><path d="M 1.609375 -12.046875 C 0.773438 -12.117188 0.253906 -12.59375 0.046875 -13.46875 C 0.015625 -13.664062 0 -13.953125 0 -14.328125 C 0 -15.367188 0.21875 -16.273438 0.65625 -17.046875 C 0.925781 -17.453125 1.144531 -17.722656 1.3125 -17.859375 C 1.582031 -18.054688 1.882812 -18.15625 2.21875 -18.15625 C 2.59375 -18.15625 2.84375 -18.019531 2.96875 -17.75 C 3.175781 -17.445312 3.144531 -17.128906 2.875 -16.796875 C 2.269531 -16.160156 1.695312 -15.773438 1.15625 -15.640625 C 0.789062 -15.566406 0.570312 -15.296875 0.5 -14.828125 C 0.4375 -14.253906 0.488281 -13.785156 0.65625 -13.421875 C 0.851562 -12.910156 1.171875 -12.625 1.609375 -12.5625 C 2.859375 -12.425781 4.539062 -13.414062 6.65625 -15.53125 L 7.109375 -15.984375 C 7.210938 -15.984375 7.28125 -15.96875 7.3125 -15.9375 C 7.34375 -15.875 7.359375 -15.820312 7.359375 -15.78125 C 7.359375 -15.6875 7.328125 -15.601562 7.265625 -15.53125 C 6.523438 -14.65625 5.570312 -13.847656 4.40625 -13.109375 C 3.25 -12.367188 2.316406 -12.015625 1.609375 -12.046875 Z M 0.90625 -16.296875 C 1.613281 -16.628906 2.082031 -16.960938 2.3125 -17.296875 C 2.382812 -17.328125 2.382812 -17.378906 2.3125 -17.453125 C 2.3125 -17.515625 2.265625 -17.546875 2.171875 -17.546875 C 1.960938 -17.617188 1.773438 -17.570312 1.609375 -17.40625 C 1.242188 -17.101562 1.007812 -16.734375 0.90625 -16.296875 Z M 0.90625 -16.296875 "/></g></g></g><g fill="#000000" fill-opacity="1"><g transform="translate(133.464443, 162.569719)"><g><path d="M 1.609375 -13.0625 C 1.441406 -13.09375 1.207031 -13.109375 0.90625 -13.109375 C 0.03125 -13.242188 -0.351562 -13.75 -0.25 -14.625 C -0.25 -14.863281 -0.164062 -15.148438 0 -15.484375 C 0.539062 -16.460938 1.378906 -17.132812 2.515625 -17.5 C 2.691406 -17.53125 2.945312 -17.546875 3.28125 -17.546875 C 3.3125 -17.546875 3.425781 -17.5 3.625 -17.40625 C 3.757812 -17.300781 3.8125 -17.179688 3.78125 -17.046875 C 3.71875 -16.910156 3.648438 -16.84375 3.578125 -16.84375 L 3.125 -16.6875 C 2.351562 -16.519531 1.664062 -16.066406 1.0625 -15.328125 C 0.988281 -15.265625 0.882812 -15.128906 0.75 -14.921875 C 0.3125 -14.117188 0.53125 -13.664062 1.40625 -13.5625 C 1.75 -13.53125 2.253906 -13.550781 2.921875 -13.625 C 4.128906 -13.851562 5.59375 -14.335938 7.3125 -15.078125 C 7.6875 -15.210938 8.242188 -15.445312 8.984375 -15.78125 L 9.484375 -15.9375 C 9.585938 -15.9375 9.65625 -15.867188 9.6875 -15.734375 C 9.6875 -15.628906 9.671875 -15.578125 9.640625 -15.578125 C 9.503906 -15.453125 9.382812 -15.367188 9.28125 -15.328125 C 8.738281 -15.128906 7.953125 -14.84375 6.921875 -14.46875 C 5.898438 -14.101562 5.125 -13.820312 4.59375 -13.625 C 4.488281 -13.582031 3.898438 -13.429688 2.828125 -13.171875 C 2.691406 -13.128906 2.488281 -13.109375 2.21875 -13.109375 C 1.945312 -13.109375 1.742188 -13.09375 1.609375 -13.0625 Z M 1.609375 -13.0625 "/></g></g></g><g fill="#000000" fill-opacity="1"><g transform="translate(142.140712, 162.569719)"><g><path d="M 1.5625 -18.265625 C 1.457031 -18.265625 1.378906 -18.28125 1.328125 -18.3125 C 1.285156 -18.34375 1.28125 -18.390625 1.3125 -18.453125 C 1.375 -19.066406 1.539062 -19.570312 1.8125 -19.96875 C 1.8125 -20.007812 1.894531 -20.03125 2.0625 -20.03125 C 2.101562 -20.03125 2.171875 -19.976562 2.265625 -19.875 C 2.296875 -19.800781 2.3125 -19.695312 2.3125 -19.5625 C 2.144531 -18.957031 2.03125 -18.609375 1.96875 -18.515625 C 1.863281 -18.347656 1.726562 -18.265625 1.5625 -18.265625 Z M 1.40625 -12.96875 C 0.632812 -13.195312 0.25 -13.71875 0.25 -14.53125 C 0.25 -15.0625 0.367188 -15.546875 0.609375 -15.984375 C 0.703125 -16.191406 0.867188 -16.273438 1.109375 -16.234375 C 1.347656 -16.171875 1.46875 -16.019531 1.46875 -15.78125 L 1.46875 -15.234375 C 1.46875 -15.097656 1.445312 -14.976562 1.40625 -14.875 L 1.40625 -14.734375 C 1.375 -14.359375 1.46875 -14.0625 1.6875 -13.84375 C 1.90625 -13.625 2.203125 -13.515625 2.578125 -13.515625 C 2.835938 -13.515625 3.171875 -13.597656 3.578125 -13.765625 C 4.179688 -14.003906 4.875 -14.425781 5.65625 -15.03125 L 6.859375 -15.9375 C 7.023438 -16.039062 7.144531 -16.078125 7.21875 -16.046875 C 7.28125 -16.046875 7.3125 -15.992188 7.3125 -15.890625 C 7.3125 -15.785156 7.28125 -15.734375 7.21875 -15.734375 C 5.695312 -14.492188 4.453125 -13.640625 3.484375 -13.171875 C 2.773438 -12.828125 2.082031 -12.757812 1.40625 -12.96875 Z M 1.40625 -12.96875 "/></g></g></g><g fill="#000000" fill-opacity="1"><g transform="translate(148.446123, 162.569719)"><g><path d="M 7.46875 -16.09375 C 7.5625 -16.09375 7.578125 -16.03125 7.515625 -15.90625 C 7.453125 -15.789062 7.300781 -15.734375 7.0625 -15.734375 L 4.234375 -15.578125 L 3.78125 -15.578125 C 3.78125 -15.546875 3.769531 -15.476562 3.75 -15.375 C 3.738281 -15.28125 3.734375 -15.195312 3.734375 -15.125 C 3.597656 -14.59375 3.460938 -14.191406 3.328125 -13.921875 C 3.128906 -13.515625 2.878906 -13.160156 2.578125 -12.859375 C 1.867188 -12.316406 1.242188 -12.398438 0.703125 -13.109375 C 0.398438 -13.453125 0.25 -13.972656 0.25 -14.671875 C 0.320312 -15.378906 0.609375 -16.070312 1.109375 -16.75 C 1.484375 -17.113281 1.785156 -17.226562 2.015625 -17.09375 C 2.085938 -17.0625 2.101562 -16.992188 2.0625 -16.890625 C 2.269531 -16.960938 2.441406 -17 2.578125 -17 C 3.148438 -17 3.519531 -16.695312 3.6875 -16.09375 L 4.234375 -16.09375 C 4.742188 -16.125 5.648438 -16.140625 6.953125 -16.140625 C 6.992188 -16.140625 7.070312 -16.128906 7.1875 -16.109375 C 7.300781 -16.097656 7.394531 -16.09375 7.46875 -16.09375 Z M 3.171875 -16.09375 C 2.972656 -16.664062 2.6875 -16.847656 2.3125 -16.640625 C 2.21875 -16.578125 2.171875 -16.492188 2.171875 -16.390625 C 2.171875 -16.191406 2.503906 -16.09375 3.171875 -16.09375 Z M 2.46875 -13.46875 C 2.9375 -13.90625 3.207031 -14.523438 3.28125 -15.328125 L 3.28125 -15.578125 C 2.300781 -15.648438 1.8125 -15.921875 1.8125 -16.390625 L 1.8125 -16.546875 C 1.238281 -15.773438 1.070312 -14.863281 1.3125 -13.8125 C 1.375 -13.476562 1.523438 -13.273438 1.765625 -13.203125 C 2.003906 -13.140625 2.238281 -13.226562 2.46875 -13.46875 Z M 2.46875 -13.46875 "/></g></g></g><g fill="#000000" fill-opacity="1"><g transform="translate(155.003773, 162.569719)"><g><path d="M 2.421875 -13.421875 C 1.515625 -12.878906 0.894531 -13.128906 0.5625 -14.171875 C 0.519531 -14.304688 0.5 -14.507812 0.5 -14.78125 C 0.5 -15.445312 0.703125 -16.066406 1.109375 -16.640625 C 1.242188 -16.847656 1.394531 -16.96875 1.5625 -17 C 1.96875 -17.0625 2.171875 -16.925781 2.171875 -16.59375 C 2.171875 -16.5625 2.148438 -16.441406 2.109375 -16.234375 C 2.078125 -16.035156 2.046875 -15.882812 2.015625 -15.78125 C 1.910156 -15.414062 1.859375 -15.03125 1.859375 -14.625 C 1.859375 -14.125 2.097656 -13.972656 2.578125 -14.171875 C 3.179688 -14.503906 3.617188 -14.753906 3.890625 -14.921875 C 4.222656 -15.160156 4.789062 -15.6875 5.59375 -16.5 C 5.863281 -16.757812 6.203125 -17.128906 6.609375 -17.609375 C 6.910156 -17.804688 7.128906 -17.890625 7.265625 -17.859375 C 7.398438 -17.785156 7.5 -17.582031 7.5625 -17.25 C 7.5625 -16.875 7.578125 -16.601562 7.609375 -16.4375 C 7.679688 -15.90625 7.75 -15.503906 7.8125 -15.234375 C 8.082031 -14.421875 8.625 -14.117188 9.4375 -14.328125 C 9.695312 -14.390625 10.066406 -14.554688 10.546875 -14.828125 L 12.203125 -15.78125 C 12.304688 -15.851562 12.457031 -15.921875 12.65625 -15.984375 C 12.6875 -16.023438 12.71875 -16.035156 12.75 -16.015625 C 12.789062 -15.992188 12.8125 -15.96875 12.8125 -15.9375 C 12.875 -15.875 12.875 -15.789062 12.8125 -15.6875 L 12.65625 -15.53125 C 11.71875 -14.894531 10.878906 -14.410156 10.140625 -14.078125 C 9.671875 -13.867188 9.316406 -13.765625 9.078125 -13.765625 C 8.367188 -13.703125 7.847656 -13.988281 7.515625 -14.625 C 7.273438 -15.03125 7.15625 -15.414062 7.15625 -15.78125 C 7.125 -15.988281 7.109375 -16.289062 7.109375 -16.6875 C 7.109375 -16.925781 7.054688 -17.0625 6.953125 -17.09375 C 6.859375 -17.164062 6.691406 -17.082031 6.453125 -16.84375 L 5.1875 -15.578125 C 4.71875 -15.046875 3.878906 -14.375 2.671875 -13.5625 C 2.640625 -13.53125 2.554688 -13.484375 2.421875 -13.421875 Z M 2.421875 -13.421875 "/></g></g></g><g fill="#000000" fill-opacity="1"><g transform="translate(166.857972, 162.569719)"><g><path d="M 3.78125 -6.859375 C 3.175781 -6.921875 2.957031 -7.257812 3.125 -7.875 C 3.195312 -8.132812 3.300781 -8.332031 3.4375 -8.46875 C 3.769531 -8.9375 4.050781 -9.273438 4.28125 -9.484375 C 5.289062 -10.523438 6.421875 -11.46875 7.671875 -12.3125 L 8.671875 -13.015625 C 7.765625 -13.316406 6.789062 -13.46875 5.75 -13.46875 L 2.015625 -13.171875 C 1.609375 -13.171875 1.304688 -13.203125 1.109375 -13.265625 C 0.429688 -13.460938 0.144531 -13.847656 0.25 -14.421875 C 0.351562 -15.503906 0.875 -16.363281 1.8125 -17 C 1.976562 -17.132812 2.210938 -17.164062 2.515625 -17.09375 C 2.691406 -17.03125 2.820312 -16.90625 2.90625 -16.71875 C 2.988281 -16.53125 2.960938 -16.351562 2.828125 -16.1875 C 2.796875 -16.15625 2.757812 -16.113281 2.71875 -16.0625 C 2.6875 -16.007812 2.644531 -15.96875 2.59375 -15.9375 C 2.539062 -15.90625 2.5 -15.875 2.46875 -15.84375 C 2.300781 -15.632812 2.082031 -15.296875 1.8125 -14.828125 C 1.613281 -14.359375 1.75 -14.109375 2.21875 -14.078125 C 2.519531 -14.003906 2.972656 -13.9375 3.578125 -13.875 C 3.847656 -13.875 4.226562 -13.878906 4.71875 -13.890625 C 5.207031 -13.910156 5.566406 -13.921875 5.796875 -13.921875 C 7.046875 -13.921875 8.070312 -13.753906 8.875 -13.421875 C 9.039062 -13.347656 9.257812 -13.378906 9.53125 -13.515625 L 13.5625 -15.890625 C 13.632812 -15.921875 13.820312 -15.988281 14.125 -16.09375 C 14.257812 -16.09375 14.34375 -16.039062 14.375 -15.9375 C 14.476562 -15.832031 14.460938 -15.75 14.328125 -15.6875 L 11.703125 -14.125 L 9.890625 -13.0625 C 9.679688 -12.925781 9.628906 -12.757812 9.734375 -12.5625 C 9.972656 -11.914062 9.921875 -11.257812 9.578125 -10.59375 C 8.535156 -8.644531 6.941406 -7.398438 4.796875 -6.859375 C 4.492188 -6.796875 4.15625 -6.796875 3.78125 -6.859375 Z M 3.9375 -7.421875 C 4.46875 -7.421875 4.882812 -7.484375 5.1875 -7.609375 C 6.539062 -8.046875 7.671875 -8.851562 8.578125 -10.03125 C 8.847656 -10.300781 9.066406 -10.671875 9.234375 -11.140625 L 9.375 -11.65625 C 9.375 -11.851562 9.359375 -12.003906 9.328125 -12.109375 C 9.328125 -12.472656 9.160156 -12.554688 8.828125 -12.359375 C 7.140625 -11.347656 5.609375 -10.117188 4.234375 -8.671875 C 4.097656 -8.535156 4.015625 -8.421875 3.984375 -8.328125 C 3.921875 -8.253906 3.851562 -8.148438 3.78125 -8.015625 C 3.675781 -7.847656 3.648438 -7.707031 3.703125 -7.59375 C 3.753906 -7.476562 3.832031 -7.421875 3.9375 -7.421875 Z M 3.9375 -7.421875 "/></g></g></g><g fill="#000000" fill-opacity="1"><g transform="translate(180.275927, 162.569719)"><g/></g></g><g fill="#000000" fill-opacity="1"><g transform="translate(194.40009, 162.569719)"><g><path d="M 25.0625 -16.09375 C 25.101562 -16.0625 25.125 -15.992188 25.125 -15.890625 C 25.082031 -15.859375 24.925781 -15.738281 24.65625 -15.53125 C 24.257812 -15.332031 23.695312 -15.046875 22.96875 -14.671875 C 22.25 -14.304688 21.789062 -14.070312 21.59375 -13.96875 C 19.539062 -12.820312 18.175781 -12.03125 17.5 -11.59375 C 17 -11.226562 16.644531 -10.828125 16.4375 -10.390625 C 15.46875 -8.273438 14.207031 -6.5625 12.65625 -5.25 C 12.320312 -4.976562 11.988281 -4.742188 11.65625 -4.546875 C 11.550781 -4.441406 11.347656 -4.351562 11.046875 -4.28125 C 10.804688 -4.25 10.59375 -4.304688 10.40625 -4.453125 C 10.226562 -4.609375 10.171875 -4.804688 10.234375 -5.046875 C 10.304688 -5.378906 10.410156 -5.628906 10.546875 -5.796875 C 10.640625 -6.003906 10.820312 -6.273438 11.09375 -6.609375 C 12.707031 -8.523438 14.203125 -9.988281 15.578125 -11 C 16.015625 -11.300781 16.335938 -11.71875 16.546875 -12.25 C 17.316406 -14.207031 18.003906 -16.664062 18.609375 -19.625 C 19.046875 -21.976562 19.25 -24.144531 19.21875 -26.125 C 19.144531 -27.375 18.941406 -28.566406 18.609375 -29.703125 C 18.441406 -30.304688 18.222656 -30.78125 17.953125 -31.125 C 17.421875 -31.820312 16.734375 -32.039062 15.890625 -31.78125 C 15.378906 -31.570312 14.84375 -31.234375 14.28125 -30.765625 C 13.300781 -29.960938 12.441406 -28.90625 11.703125 -27.59375 C 10.859375 -26.207031 10 -24.269531 9.125 -21.78125 C 7.71875 -17.75 6.507812 -13.664062 5.5 -9.53125 C 4.425781 -5.195312 3.347656 -0.441406 2.265625 4.734375 C 2.203125 5.140625 2.019531 5.929688 1.71875 7.109375 C 1.71875 7.140625 1.632812 7.359375 1.46875 7.765625 C 1.363281 7.929688 1.226562 8.015625 1.0625 8.015625 C 0.894531 7.984375 0.757812 7.882812 0.65625 7.71875 C 0.550781 7.476562 0.5 7.222656 0.5 6.953125 C 0.5 5.910156 0.519531 5.140625 0.5625 4.640625 C 0.726562 1.878906 1.160156 -1.378906 1.859375 -5.140625 L 3.6875 -14.671875 C 4.082031 -16.828125 4.71875 -20.054688 5.59375 -24.359375 C 6 -26.378906 6.269531 -27.976562 6.40625 -29.15625 C 6.40625 -29.425781 6.472656 -29.59375 6.609375 -29.65625 C 6.671875 -29.6875 6.753906 -29.644531 6.859375 -29.53125 C 6.960938 -29.414062 7.03125 -29.289062 7.0625 -29.15625 C 7.125 -28.75 7.125 -28.144531 7.0625 -27.34375 C 6.863281 -25.21875 6.257812 -21.535156 5.25 -16.296875 L 3.28125 -5.90625 C 3.175781 -5.332031 3 -4.347656 2.75 -2.953125 C 2.5 -1.554688 2.304688 -0.488281 2.171875 0.25 L 1.71875 3.734375 L 1.71875 4.1875 C 1.882812 3.945312 2 3.609375 2.0625 3.171875 C 3.175781 -1.898438 4.390625 -6.992188 5.703125 -12.109375 C 6.804688 -16.335938 8.082031 -20.367188 9.53125 -24.203125 C 10.207031 -25.992188 11.03125 -27.609375 12 -29.046875 C 12.707031 -30.085938 13.550781 -30.960938 14.53125 -31.671875 C 15 -31.972656 15.503906 -32.226562 16.046875 -32.4375 C 16.847656 -32.664062 17.566406 -32.445312 18.203125 -31.78125 C 18.503906 -31.4375 18.773438 -30.960938 19.015625 -30.359375 C 19.453125 -29.222656 19.722656 -27.945312 19.828125 -26.53125 C 19.960938 -24.113281 19.722656 -21.472656 19.109375 -18.609375 C 18.671875 -16.523438 18.148438 -14.625 17.546875 -12.90625 C 17.546875 -12.875 17.53125 -12.800781 17.5 -12.6875 C 17.46875 -12.570312 17.4375 -12.460938 17.40625 -12.359375 C 17.664062 -12.492188 18.207031 -12.785156 19.03125 -13.234375 C 19.863281 -13.691406 20.5 -14.019531 20.9375 -14.21875 L 24.40625 -15.984375 C 24.675781 -16.117188 24.878906 -16.171875 25.015625 -16.140625 Z M 15.125 -9.484375 L 15.125 -9.6875 C 15.0625 -9.6875 15.015625 -9.671875 14.984375 -9.640625 C 13.804688 -8.660156 12.578125 -7.394531 11.296875 -5.84375 C 11.234375 -5.78125 11.132812 -5.5625 11 -5.1875 C 10.925781 -5.1875 10.941406 -5.140625 11.046875 -5.046875 L 11.140625 -5.046875 C 11.242188 -5.078125 11.394531 -5.160156 11.59375 -5.296875 C 13.007812 -6.367188 14.1875 -7.765625 15.125 -9.484375 Z M 15.125 -9.484375 "/></g></g></g><g fill="#000000" fill-opacity="1"><g transform="translate(218.512039, 162.569719)"><g><path d="M 6 -13.875 C 5.257812 -13.664062 4.835938 -13.953125 4.734375 -14.734375 C 4.703125 -15.128906 4.738281 -15.582031 4.84375 -16.09375 C 4.90625 -16.457031 4.921875 -16.691406 4.890625 -16.796875 C 4.828125 -16.796875 4.757812 -16.773438 4.6875 -16.734375 C 4.625 -16.703125 4.570312 -16.671875 4.53125 -16.640625 C 4.5 -16.609375 4.457031 -16.566406 4.40625 -16.515625 C 4.363281 -16.460938 4.320312 -16.421875 4.28125 -16.390625 C 3.507812 -15.722656 2.804688 -15.234375 2.171875 -14.921875 C 1.929688 -14.796875 1.695312 -14.679688 1.46875 -14.578125 C 1.125 -14.472656 0.859375 -14.503906 0.671875 -14.671875 C 0.492188 -14.835938 0.4375 -15.09375 0.5 -15.4375 C 0.5 -15.5 0.535156 -15.632812 0.609375 -15.84375 C 0.804688 -16.3125 1.109375 -16.695312 1.515625 -17 C 2.222656 -17.5 2.925781 -17.5 3.625 -17 L 3.6875 -16.953125 L 3.734375 -16.953125 C 3.960938 -16.773438 4.164062 -16.773438 4.34375 -16.953125 L 5.296875 -17.90625 C 5.460938 -18.039062 5.59375 -18.054688 5.6875 -17.953125 C 5.789062 -17.847656 5.8125 -17.765625 5.75 -17.703125 C 5.71875 -17.429688 5.632812 -17.03125 5.5 -16.5 C 5.332031 -15.851562 5.265625 -15.265625 5.296875 -14.734375 C 5.328125 -14.460938 5.492188 -14.34375 5.796875 -14.375 C 6.304688 -14.4375 7.648438 -14.992188 9.828125 -16.046875 C 9.960938 -16.046875 10.050781 -16.007812 10.09375 -15.9375 C 10.15625 -15.769531 10.066406 -15.617188 9.828125 -15.484375 C 8.085938 -14.609375 6.8125 -14.070312 6 -13.875 Z M 1.71875 -15.234375 C 2.082031 -15.367188 2.46875 -15.550781 2.875 -15.78125 C 3.113281 -15.957031 3.25 -16.09375 3.28125 -16.1875 C 3.3125 -16.257812 3.265625 -16.316406 3.140625 -16.359375 C 3.023438 -16.410156 2.882812 -16.4375 2.71875 -16.4375 C 2.445312 -16.375 2.25 -16.304688 2.125 -16.234375 C 1.71875 -15.929688 1.445312 -15.613281 1.3125 -15.28125 C 1.476562 -15.144531 1.613281 -15.128906 1.71875 -15.234375 Z M 1.71875 -15.234375 "/></g></g></g><g fill="#000000" fill-opacity="1"><g transform="translate(227.59186, 162.569719)"><g><path d="M 3.03125 -10.03125 C 2.320312 -10.101562 1.867188 -10.457031 1.671875 -11.09375 C 1.597656 -11.332031 1.5625 -11.738281 1.5625 -12.3125 C 1.59375 -12.613281 1.640625 -12.957031 1.703125 -13.34375 C 1.773438 -13.726562 1.816406 -13.988281 1.828125 -14.125 C 1.847656 -14.257812 1.847656 -14.410156 1.828125 -14.578125 C 1.816406 -14.742188 1.773438 -14.867188 1.703125 -14.953125 C 1.640625 -15.035156 1.539062 -15.128906 1.40625 -15.234375 C 1.070312 -15.429688 0.769531 -15.679688 0.5 -15.984375 C -0.132812 -16.796875 -0.0507812 -17.503906 0.75 -18.109375 C 1.019531 -18.273438 1.28125 -18.296875 1.53125 -18.171875 C 1.789062 -18.054688 1.9375 -17.847656 1.96875 -17.546875 C 2 -17.410156 1.984375 -17.175781 1.921875 -16.84375 C 1.921875 -16.8125 1.835938 -16.59375 1.671875 -16.1875 C 1.566406 -16.050781 1.582031 -15.914062 1.71875 -15.78125 C 1.8125 -15.6875 1.894531 -15.617188 1.96875 -15.578125 C 2.539062 -15.140625 2.8125 -14.503906 2.78125 -13.671875 C 2.78125 -13.503906 2.769531 -13.25 2.75 -12.90625 C 2.726562 -12.570312 2.71875 -12.320312 2.71875 -12.15625 C 2.71875 -11.957031 2.753906 -11.6875 2.828125 -11.34375 C 2.921875 -10.976562 3.171875 -10.796875 3.578125 -10.796875 C 3.847656 -10.828125 4.171875 -10.925781 4.546875 -11.09375 C 5.179688 -11.363281 5.816406 -11.769531 6.453125 -12.3125 C 6.753906 -12.539062 7.410156 -13.066406 8.421875 -13.890625 C 9.429688 -14.710938 10.085938 -15.242188 10.390625 -15.484375 C 10.660156 -15.679688 10.878906 -15.832031 11.046875 -15.9375 C 11.078125 -15.96875 11.109375 -15.972656 11.140625 -15.953125 C 11.179688 -15.941406 11.203125 -15.921875 11.203125 -15.890625 C 11.265625 -15.816406 11.28125 -15.765625 11.25 -15.734375 C 11.144531 -15.566406 11.078125 -15.46875 11.046875 -15.4375 C 10.609375 -15.0625 9.789062 -14.394531 8.59375 -13.4375 C 7.40625 -12.476562 6.691406 -11.914062 6.453125 -11.75 C 5.878906 -11.25 5.140625 -10.78125 4.234375 -10.34375 C 3.898438 -10.132812 3.5 -10.03125 3.03125 -10.03125 Z M 1.015625 -16.4375 L 1.109375 -16.5 L 1.203125 -16.546875 C 1.378906 -16.816406 1.46875 -17.082031 1.46875 -17.34375 C 1.46875 -17.414062 1.414062 -17.503906 1.3125 -17.609375 C 1.238281 -17.671875 1.140625 -17.671875 1.015625 -17.609375 C 0.640625 -17.335938 0.585938 -17 0.859375 -16.59375 Z M 1.015625 -16.4375 "/></g></g></g><g fill="#000000" fill-opacity="1"><g transform="translate(237.831854, 162.569719)"><g><path d="M 3.03125 -10.03125 C 2.320312 -10.101562 1.867188 -10.457031 1.671875 -11.09375 C 1.597656 -11.332031 1.5625 -11.738281 1.5625 -12.3125 C 1.59375 -12.613281 1.640625 -12.957031 1.703125 -13.34375 C 1.773438 -13.726562 1.816406 -13.988281 1.828125 -14.125 C 1.847656 -14.257812 1.847656 -14.410156 1.828125 -14.578125 C 1.816406 -14.742188 1.773438 -14.867188 1.703125 -14.953125 C 1.640625 -15.035156 1.539062 -15.128906 1.40625 -15.234375 C 1.070312 -15.429688 0.769531 -15.679688 0.5 -15.984375 C -0.132812 -16.796875 -0.0507812 -17.503906 0.75 -18.109375 C 1.019531 -18.273438 1.28125 -18.296875 1.53125 -18.171875 C 1.789062 -18.054688 1.9375 -17.847656 1.96875 -17.546875 C 2 -17.410156 1.984375 -17.175781 1.921875 -16.84375 C 1.921875 -16.8125 1.835938 -16.59375 1.671875 -16.1875 C 1.566406 -16.050781 1.582031 -15.914062 1.71875 -15.78125 C 1.8125 -15.6875 1.894531 -15.617188 1.96875 -15.578125 C 2.539062 -15.140625 2.8125 -14.503906 2.78125 -13.671875 C 2.78125 -13.503906 2.769531 -13.25 2.75 -12.90625 C 2.726562 -12.570312 2.71875 -12.320312 2.71875 -12.15625 C 2.71875 -11.957031 2.753906 -11.6875 2.828125 -11.34375 C 2.921875 -10.976562 3.171875 -10.796875 3.578125 -10.796875 C 3.847656 -10.828125 4.171875 -10.925781 4.546875 -11.09375 C 5.179688 -11.363281 5.816406 -11.769531 6.453125 -12.3125 C 6.753906 -12.539062 7.410156 -13.066406 8.421875 -13.890625 C 9.429688 -14.710938 10.085938 -15.242188 10.390625 -15.484375 C 10.660156 -15.679688 10.878906 -15.832031 11.046875 -15.9375 C 11.078125 -15.96875 11.109375 -15.972656 11.140625 -15.953125 C 11.179688 -15.941406 11.203125 -15.921875 11.203125 -15.890625 C 11.265625 -15.816406 11.28125 -15.765625 11.25 -15.734375 C 11.144531 -15.566406 11.078125 -15.46875 11.046875 -15.4375 C 10.609375 -15.0625 9.789062 -14.394531 8.59375 -13.4375 C 7.40625 -12.476562 6.691406 -11.914062 6.453125 -11.75 C 5.878906 -11.25 5.140625 -10.78125 4.234375 -10.34375 C 3.898438 -10.132812 3.5 -10.03125 3.03125 -10.03125 Z M 1.015625 -16.4375 L 1.109375 -16.5 L 1.203125 -16.546875 C 1.378906 -16.816406 1.46875 -17.082031 1.46875 -17.34375 C 1.46875 -17.414062 1.414062 -17.503906 1.3125 -17.609375 C 1.238281 -17.671875 1.140625 -17.671875 1.015625 -17.609375 C 0.640625 -17.335938 0.585938 -17 0.859375 -16.59375 Z M 1.015625 -16.4375 "/></g></g></g><g fill="#000000" fill-opacity="1"><g transform="translate(248.071848, 162.569719)"><g><path d="M 1.609375 -12.046875 C 0.773438 -12.117188 0.253906 -12.59375 0.046875 -13.46875 C 0.015625 -13.664062 0 -13.953125 0 -14.328125 C 0 -15.367188 0.21875 -16.273438 0.65625 -17.046875 C 0.925781 -17.453125 1.144531 -17.722656 1.3125 -17.859375 C 1.582031 -18.054688 1.882812 -18.15625 2.21875 -18.15625 C 2.59375 -18.15625 2.84375 -18.019531 2.96875 -17.75 C 3.175781 -17.445312 3.144531 -17.128906 2.875 -16.796875 C 2.269531 -16.160156 1.695312 -15.773438 1.15625 -15.640625 C 0.789062 -15.566406 0.570312 -15.296875 0.5 -14.828125 C 0.4375 -14.253906 0.488281 -13.785156 0.65625 -13.421875 C 0.851562 -12.910156 1.171875 -12.625 1.609375 -12.5625 C 2.859375 -12.425781 4.539062 -13.414062 6.65625 -15.53125 L 7.109375 -15.984375 C 7.210938 -15.984375 7.28125 -15.96875 7.3125 -15.9375 C 7.34375 -15.875 7.359375 -15.820312 7.359375 -15.78125 C 7.359375 -15.6875 7.328125 -15.601562 7.265625 -15.53125 C 6.523438 -14.65625 5.570312 -13.847656 4.40625 -13.109375 C 3.25 -12.367188 2.316406 -12.015625 1.609375 -12.046875 Z M 0.90625 -16.296875 C 1.613281 -16.628906 2.082031 -16.960938 2.3125 -17.296875 C 2.382812 -17.328125 2.382812 -17.378906 2.3125 -17.453125 C 2.3125 -17.515625 2.265625 -17.546875 2.171875 -17.546875 C 1.960938 -17.617188 1.773438 -17.570312 1.609375 -17.40625 C 1.242188 -17.101562 1.007812 -16.734375 0.90625 -16.296875 Z M 0.90625 -16.296875 "/></g></g></g><g fill="#000000" fill-opacity="1"><g transform="translate(254.427707, 162.569719)"><g><path d="M 1.359375 -13.0625 C 0.992188 -12.757812 0.742188 -12.84375 0.609375 -13.3125 C 0.503906 -13.644531 0.488281 -14.117188 0.5625 -14.734375 C 0.59375 -15.035156 0.675781 -15.40625 0.8125 -15.84375 C 0.875 -16.039062 0.972656 -16.140625 1.109375 -16.140625 C 1.242188 -16.109375 1.3125 -15.972656 1.3125 -15.734375 C 1.238281 -15.460938 1.203125 -15.226562 1.203125 -15.03125 C 1.140625 -14.488281 1.140625 -14.082031 1.203125 -13.8125 C 1.640625 -14.25 1.945312 -14.570312 2.125 -14.78125 C 2.726562 -15.382812 3.28125 -15.820312 3.78125 -16.09375 C 4.519531 -16.5625 5.242188 -16.523438 5.953125 -15.984375 C 6.253906 -15.753906 6.640625 -15.4375 7.109375 -15.03125 C 7.378906 -14.695312 7.890625 -14.585938 8.640625 -14.703125 C 9.398438 -14.816406 10.070312 -14.96875 10.65625 -15.15625 C 11.25 -15.34375 11.816406 -15.550781 12.359375 -15.78125 C 12.460938 -15.851562 12.625 -15.929688 12.84375 -16.015625 C 13.0625 -16.097656 13.21875 -16.15625 13.3125 -16.1875 C 13.476562 -16.1875 13.597656 -16.140625 13.671875 -16.046875 C 13.703125 -15.972656 13.664062 -15.882812 13.5625 -15.78125 C 12.957031 -15.34375 12.226562 -14.945312 11.375 -14.59375 C 10.519531 -14.25 9.628906 -14.007812 8.703125 -13.875 C 7.773438 -13.738281 7.039062 -13.875 6.5 -14.28125 C 5.96875 -14.613281 5.582031 -14.878906 5.34375 -15.078125 C 4.9375 -15.347656 4.5 -15.382812 4.03125 -15.1875 C 3.320312 -14.78125 2.6875 -14.289062 2.125 -13.71875 Z M 7.421875 -21.078125 C 6.804688 -21.148438 6.316406 -21.382812 5.953125 -21.78125 L 5.1875 -22.75 C 4.851562 -23.113281 4.535156 -23.046875 4.234375 -22.546875 C 4.234375 -22.515625 4.234375 -22.457031 4.234375 -22.375 C 4.234375 -22.289062 4.21875 -22.226562 4.1875 -22.1875 C 4.1875 -22.09375 4.164062 -22.019531 4.125 -21.96875 C 4.09375 -21.914062 4.046875 -21.90625 3.984375 -21.9375 C 3.847656 -21.9375 3.75 -22.019531 3.6875 -22.1875 C 3.550781 -22.695312 3.71875 -23.101562 4.1875 -23.40625 C 4.59375 -23.738281 4.992188 -23.753906 5.390625 -23.453125 C 5.460938 -23.421875 5.53125 -23.367188 5.59375 -23.296875 C 5.664062 -23.234375 5.742188 -23.148438 5.828125 -23.046875 C 5.910156 -22.953125 5.96875 -22.882812 6 -22.84375 C 6.132812 -22.644531 6.335938 -22.378906 6.609375 -22.046875 C 7.015625 -21.703125 7.414062 -21.597656 7.8125 -21.734375 C 8.21875 -21.941406 8.457031 -22.28125 8.53125 -22.75 L 8.53125 -23.046875 C 8.53125 -23.148438 8.5625 -23.203125 8.625 -23.203125 C 8.757812 -23.203125 8.84375 -23.1875 8.875 -23.15625 C 9.007812 -23.050781 9.078125 -22.898438 9.078125 -22.703125 C 9.078125 -22.265625 8.90625 -21.882812 8.5625 -21.5625 C 8.226562 -21.238281 7.847656 -21.078125 7.421875 -21.078125 Z M 7.421875 -21.078125 "/></g></g></g><g fill="#000000" fill-opacity="1"><g transform="translate(267.089008, 162.569719)"><g><path d="M 7.46875 -16.09375 C 7.5625 -16.09375 7.578125 -16.03125 7.515625 -15.90625 C 7.453125 -15.789062 7.300781 -15.734375 7.0625 -15.734375 L 4.234375 -15.578125 L 3.78125 -15.578125 C 3.78125 -15.546875 3.769531 -15.476562 3.75 -15.375 C 3.738281 -15.28125 3.734375 -15.195312 3.734375 -15.125 C 3.597656 -14.59375 3.460938 -14.191406 3.328125 -13.921875 C 3.128906 -13.515625 2.878906 -13.160156 2.578125 -12.859375 C 1.867188 -12.316406 1.242188 -12.398438 0.703125 -13.109375 C 0.398438 -13.453125 0.25 -13.972656 0.25 -14.671875 C 0.320312 -15.378906 0.609375 -16.070312 1.109375 -16.75 C 1.484375 -17.113281 1.785156 -17.226562 2.015625 -17.09375 C 2.085938 -17.0625 2.101562 -16.992188 2.0625 -16.890625 C 2.269531 -16.960938 2.441406 -17 2.578125 -17 C 3.148438 -17 3.519531 -16.695312 3.6875 -16.09375 L 4.234375 -16.09375 C 4.742188 -16.125 5.648438 -16.140625 6.953125 -16.140625 C 6.992188 -16.140625 7.070312 -16.128906 7.1875 -16.109375 C 7.300781 -16.097656 7.394531 -16.09375 7.46875 -16.09375 Z M 3.171875 -16.09375 C 2.972656 -16.664062 2.6875 -16.847656 2.3125 -16.640625 C 2.21875 -16.578125 2.171875 -16.492188 2.171875 -16.390625 C 2.171875 -16.191406 2.503906 -16.09375 3.171875 -16.09375 Z M 2.46875 -13.46875 C 2.9375 -13.90625 3.207031 -14.523438 3.28125 -15.328125 L 3.28125 -15.578125 C 2.300781 -15.648438 1.8125 -15.921875 1.8125 -16.390625 L 1.8125 -16.546875 C 1.238281 -15.773438 1.070312 -14.863281 1.3125 -13.8125 C 1.375 -13.476562 1.523438 -13.273438 1.765625 -13.203125 C 2.003906 -13.140625 2.238281 -13.226562 2.46875 -13.46875 Z M 2.46875 -13.46875 "/></g></g></g><g fill="#000000" fill-opacity="1"><g transform="translate(20.153327, 117.510311)"><g><path d="M 11.515625 -14.671875 C 12.367188 -14.671875 13.144531 -14.472656 13.84375 -14.078125 C 14.550781 -13.679688 15.117188 -13.144531 15.546875 -12.46875 C 15.972656 -11.789062 16.1875 -11.023438 16.1875 -10.171875 C 16.1875 -9.285156 15.957031 -8.484375 15.5 -7.765625 C 15.050781 -7.054688 14.445312 -6.492188 13.6875 -6.078125 C 12.925781 -5.660156 12.085938 -5.453125 11.171875 -5.453125 L 5.71875 -5.453125 L 5.71875 0 L 3.453125 0 L 3.453125 -14.671875 Z M 11.015625 -7.625 C 11.515625 -7.625 11.976562 -7.738281 12.40625 -7.96875 C 12.832031 -8.207031 13.171875 -8.519531 13.421875 -8.90625 C 13.671875 -9.289062 13.796875 -9.710938 13.796875 -10.171875 C 13.796875 -10.597656 13.671875 -10.988281 13.421875 -11.34375 C 13.171875 -11.695312 12.832031 -11.976562 12.40625 -12.1875 C 11.976562 -12.394531 11.515625 -12.5 11.015625 -12.5 L 5.71875 -12.5 L 5.71875 -7.625 Z M 11.015625 -7.625 "/></g></g></g><g fill="#000000" fill-opacity="1"><g transform="translate(51.189327, 117.510311)"><g><path d="M 16.3125 -10.125 C 16.3125 -9.457031 16.164062 -8.828125 15.875 -8.234375 C 15.59375 -7.648438 15.195312 -7.140625 14.6875 -6.703125 C 14.1875 -6.273438 13.617188 -5.945312 12.984375 -5.71875 L 17.109375 0.015625 L 14.296875 0 L 10.421875 -5.4375 L 5.71875 -5.4375 L 5.71875 0 L 3.453125 0 L 3.453125 -14.671875 L 11.578125 -14.671875 C 12.410156 -14.671875 13.1875 -14.472656 13.90625 -14.078125 C 14.632812 -13.679688 15.21875 -13.144531 15.65625 -12.46875 C 16.09375 -11.789062 16.3125 -11.007812 16.3125 -10.125 Z M 10.984375 -12.5 L 5.71875 -12.5 L 5.71875 -7.609375 L 11.109375 -7.609375 C 11.628906 -7.609375 12.101562 -7.722656 12.53125 -7.953125 C 12.957031 -8.179688 13.296875 -8.488281 13.546875 -8.875 C 13.796875 -9.257812 13.921875 -9.6875 13.921875 -10.15625 C 13.921875 -10.59375 13.785156 -10.988281 13.515625 -11.34375 C 13.253906 -11.707031 12.898438 -11.988281 12.453125 -12.1875 C 12.003906 -12.394531 11.515625 -12.5 10.984375 -12.5 Z M 10.984375 -12.5 "/></g></g></g><g fill="#000000" fill-opacity="1"><g transform="translate(83.462386, 117.510311)"><g><path d="M 3.453125 -14.671875 L 15.0625 -14.671875 L 15.0625 -12.5 L 5.71875 -12.5 L 5.71875 -8.625 L 13.90625 -8.625 L 13.90625 -6.4375 L 5.71875 -6.4375 L 5.71875 -2.1875 L 15.0625 -2.1875 L 15.0625 0 L 3.453125 0 Z M 3.453125 -14.671875 "/></g></g></g><g fill="#000000" fill-opacity="1"><g transform="translate(113.911306, 117.510311)"><g><path d="M 16.90625 -2.09375 C 16.519531 -1.769531 16.003906 -1.425781 15.359375 -1.0625 C 14.722656 -0.707031 13.992188 -0.40625 13.171875 -0.15625 C 12.347656 0.0820312 11.46875 0.203125 10.53125 0.203125 C 9.382812 0.203125 8.3125 0.0234375 7.3125 -0.328125 C 6.320312 -0.679688 5.457031 -1.1875 4.71875 -1.84375 C 3.976562 -2.5 3.394531 -3.289062 2.96875 -4.21875 C 2.550781 -5.15625 2.34375 -6.195312 2.34375 -7.34375 C 2.34375 -8.414062 2.5625 -9.40625 3 -10.3125 C 3.4375 -11.21875 4.035156 -12.003906 4.796875 -12.671875 C 5.554688 -13.347656 6.429688 -13.867188 7.421875 -14.234375 C 8.410156 -14.609375 9.457031 -14.796875 10.5625 -14.796875 C 11.476562 -14.796875 12.351562 -14.675781 13.1875 -14.4375 C 14.03125 -14.207031 14.78125 -13.898438 15.4375 -13.515625 C 16.101562 -13.140625 16.640625 -12.742188 17.046875 -12.328125 L 15.65625 -10.484375 C 14.945312 -11.085938 14.160156 -11.585938 13.296875 -11.984375 C 12.441406 -12.378906 11.476562 -12.578125 10.40625 -12.578125 C 9.675781 -12.578125 8.96875 -12.453125 8.28125 -12.203125 C 7.59375 -11.960938 6.976562 -11.613281 6.4375 -11.15625 C 5.894531 -10.707031 5.460938 -10.160156 5.140625 -9.515625 C 4.816406 -8.878906 4.65625 -8.15625 4.65625 -7.34375 C 4.65625 -6.457031 4.820312 -5.679688 5.15625 -5.015625 C 5.488281 -4.359375 5.9375 -3.804688 6.5 -3.359375 C 7.070312 -2.910156 7.722656 -2.570312 8.453125 -2.34375 C 9.191406 -2.125 9.953125 -2.015625 10.734375 -2.015625 C 11.503906 -2.015625 12.195312 -2.113281 12.8125 -2.3125 C 13.4375 -2.519531 13.992188 -2.773438 14.484375 -3.078125 C 14.972656 -3.390625 15.414062 -3.691406 15.8125 -3.984375 Z M 16.90625 -2.09375 "/></g></g></g><g fill="#000000" fill-opacity="1"><g transform="translate(145.61826, 117.510311)"><g><path d="M 3.453125 -14.671875 L 15.0625 -14.671875 L 15.0625 -12.5 L 5.71875 -12.5 L 5.71875 -8.625 L 13.90625 -8.625 L 13.90625 -6.4375 L 5.71875 -6.4375 L 5.71875 -2.1875 L 15.0625 -2.1875 L 15.0625 0 L 3.453125 0 Z M 3.453125 -14.671875 "/></g></g></g><g fill="#000000" fill-opacity="1"><g transform="translate(176.067173, 117.510311)"><g><path d="M 16.3125 -10.125 C 16.3125 -9.457031 16.164062 -8.828125 15.875 -8.234375 C 15.59375 -7.648438 15.195312 -7.140625 14.6875 -6.703125 C 14.1875 -6.273438 13.617188 -5.945312 12.984375 -5.71875 L 17.109375 0.015625 L 14.296875 0 L 10.421875 -5.4375 L 5.71875 -5.4375 L 5.71875 0 L 3.453125 0 L 3.453125 -14.671875 L 11.578125 -14.671875 C 12.410156 -14.671875 13.1875 -14.472656 13.90625 -14.078125 C 14.632812 -13.679688 15.21875 -13.144531 15.65625 -12.46875 C 16.09375 -11.789062 16.3125 -11.007812 16.3125 -10.125 Z M 10.984375 -12.5 L 5.71875 -12.5 L 5.71875 -7.609375 L 11.109375 -7.609375 C 11.628906 -7.609375 12.101562 -7.722656 12.53125 -7.953125 C 12.957031 -8.179688 13.296875 -8.488281 13.546875 -8.875 C 13.796875 -9.257812 13.921875 -9.6875 13.921875 -10.15625 C 13.921875 -10.59375 13.785156 -10.988281 13.515625 -11.34375 C 13.253906 -11.707031 12.898438 -11.988281 12.453125 -12.1875 C 12.003906 -12.394531 11.515625 -12.5 10.984375 -12.5 Z M 10.984375 -12.5 "/></g></g></g><g fill="#000000" fill-opacity="1"><g transform="translate(208.340225, 117.510311)"><g><path d="M 15.453125 0 L 13.8125 -3.484375 L 5.65625 -3.484375 L 4.03125 0 L 1.65625 0 L 8.515625 -14.671875 L 11.09375 -14.671875 L 17.921875 0 Z M 8.59375 -9.765625 L 6.671875 -5.65625 L 12.796875 -5.65625 L 10.84375 -9.859375 C 10.644531 -10.273438 10.453125 -10.6875 10.265625 -11.09375 C 10.085938 -11.5 9.910156 -11.9375 9.734375 -12.40625 C 9.546875 -11.914062 9.359375 -11.457031 9.171875 -11.03125 C 8.984375 -10.613281 8.789062 -10.191406 8.59375 -9.765625 Z M 8.59375 -9.765625 "/></g></g></g><g fill="#000000" fill-opacity="1"><g transform="translate(240.319737, 117.510311)"><g><path d="M 5.6875 -14.671875 L 11.671875 -6.875 L 17.703125 -14.671875 L 19.875 -14.671875 L 19.875 0 L 17.609375 0 L 17.609375 -6.1875 C 17.609375 -7.09375 17.625 -7.953125 17.65625 -8.765625 C 17.695312 -9.578125 17.765625 -10.390625 17.859375 -11.203125 L 12.34375 -4.21875 L 10.96875 -4.21875 L 5.5 -11.203125 C 5.59375 -10.390625 5.648438 -9.578125 5.671875 -8.765625 C 5.703125 -7.953125 5.71875 -7.09375 5.71875 -6.1875 L 5.71875 0 L 3.453125 0 L 3.453125 -14.671875 Z M 5.6875 -14.671875 "/></g></g></g><g fill="#000000" fill-opacity="1"><g transform="translate(276.073321, 117.510311)"><g><path d="M 12.828125 0 L 3.484375 0 L 3.484375 -2.21875 L 7.03125 -2.21875 L 7.03125 -12.453125 L 3.484375 -12.453125 L 3.484375 -14.671875 L 12.828125 -14.671875 L 12.828125 -12.453125 L 9.296875 -12.453125 L 9.296875 -2.21875 L 12.828125 -2.21875 Z M 12.828125 0 "/></g></g></g><g fill="#000000" fill-opacity="1"><g transform="translate(304.802944, 117.510311)"><g><path d="M 16.90625 -2.09375 C 16.519531 -1.769531 16.003906 -1.425781 15.359375 -1.0625 C 14.722656 -0.707031 13.992188 -0.40625 13.171875 -0.15625 C 12.347656 0.0820312 11.46875 0.203125 10.53125 0.203125 C 9.382812 0.203125 8.3125 0.0234375 7.3125 -0.328125 C 6.320312 -0.679688 5.457031 -1.1875 4.71875 -1.84375 C 3.976562 -2.5 3.394531 -3.289062 2.96875 -4.21875 C 2.550781 -5.15625 2.34375 -6.195312 2.34375 -7.34375 C 2.34375 -8.414062 2.5625 -9.40625 3 -10.3125 C 3.4375 -11.21875 4.035156 -12.003906 4.796875 -12.671875 C 5.554688 -13.347656 6.429688 -13.867188 7.421875 -14.234375 C 8.410156 -14.609375 9.457031 -14.796875 10.5625 -14.796875 C 11.476562 -14.796875 12.351562 -14.675781 13.1875 -14.4375 C 14.03125 -14.207031 14.78125 -13.898438 15.4375 -13.515625 C 16.101562 -13.140625 16.640625 -12.742188 17.046875 -12.328125 L 15.65625 -10.484375 C 14.945312 -11.085938 14.160156 -11.585938 13.296875 -11.984375 C 12.441406 -12.378906 11.476562 -12.578125 10.40625 -12.578125 C 9.675781 -12.578125 8.96875 -12.453125 8.28125 -12.203125 C 7.59375 -11.960938 6.976562 -11.613281 6.4375 -11.15625 C 5.894531 -10.707031 5.460938 -10.160156 5.140625 -9.515625 C 4.816406 -8.878906 4.65625 -8.15625 4.65625 -7.34375 C 4.65625 -6.457031 4.820312 -5.679688 5.15625 -5.015625 C 5.488281 -4.359375 5.9375 -3.804688 6.5 -3.359375 C 7.070312 -2.910156 7.722656 -2.570312 8.453125 -2.34375 C 9.191406 -2.125 9.953125 -2.015625 10.734375 -2.015625 C 11.503906 -2.015625 12.195312 -2.113281 12.8125 -2.3125 C 13.4375 -2.519531 13.992188 -2.773438 14.484375 -3.078125 C 14.972656 -3.390625 15.414062 -3.691406 15.8125 -3.984375 Z M 16.90625 -2.09375 "/></g></g></g><g fill="#000000" fill-opacity="1"><g transform="translate(336.50989, 117.510311)"><g><path d="M 3.8125 -4.515625 C 4.582031 -3.660156 5.398438 -3 6.265625 -2.53125 C 7.128906 -2.0625 8.171875 -1.828125 9.390625 -1.828125 C 10.066406 -1.828125 10.71875 -1.910156 11.34375 -2.078125 C 11.96875 -2.242188 12.476562 -2.5 12.875 -2.84375 C 13.28125 -3.1875 13.484375 -3.625 13.484375 -4.15625 C 13.484375 -4.613281 13.300781 -4.972656 12.9375 -5.234375 C 12.582031 -5.503906 12.0625 -5.710938 11.375 -5.859375 C 10.695312 -6.003906 9.875 -6.140625 8.90625 -6.265625 C 7.71875 -6.429688 6.6875 -6.6875 5.8125 -7.03125 C 4.945312 -7.375 4.273438 -7.835938 3.796875 -8.421875 C 3.316406 -9.003906 3.078125 -9.726562 3.078125 -10.59375 C 3.078125 -11.5 3.359375 -12.269531 3.921875 -12.90625 C 4.484375 -13.539062 5.234375 -14.03125 6.171875 -14.375 C 7.117188 -14.71875 8.164062 -14.890625 9.3125 -14.890625 C 10.738281 -14.890625 11.972656 -14.664062 13.015625 -14.21875 C 14.054688 -13.769531 14.867188 -13.132812 15.453125 -12.3125 L 13.9375 -10.671875 C 13.425781 -11.316406 12.773438 -11.84375 11.984375 -12.25 C 11.203125 -12.65625 10.289062 -12.859375 9.25 -12.859375 C 8.1875 -12.859375 7.296875 -12.675781 6.578125 -12.3125 C 5.867188 -11.957031 5.515625 -11.453125 5.515625 -10.796875 C 5.515625 -10.296875 5.6875 -9.894531 6.03125 -9.59375 C 6.382812 -9.289062 6.875 -9.054688 7.5 -8.890625 C 8.132812 -8.722656 8.867188 -8.578125 9.703125 -8.453125 C 10.515625 -8.347656 11.289062 -8.210938 12.03125 -8.046875 C 12.769531 -7.878906 13.429688 -7.65625 14.015625 -7.375 C 14.597656 -7.101562 15.0625 -6.734375 15.40625 -6.265625 C 15.75 -5.796875 15.921875 -5.203125 15.921875 -4.484375 C 15.921875 -3.535156 15.648438 -2.707031 15.109375 -2 C 14.566406 -1.289062 13.800781 -0.742188 12.8125 -0.359375 C 11.832031 0.015625 10.671875 0.203125 9.328125 0.203125 C 7.890625 0.203125 6.585938 -0.015625 5.421875 -0.453125 C 4.265625 -0.898438 3.238281 -1.628906 2.34375 -2.640625 Z M 3.8125 -4.515625 "/></g></g></g></svg>